<svg xmlns="http://www.w3.org/2000/svg" viewBox="0 0 1200 520" role="img" aria-label="Postulantes con derecho a vacante">
  <defs>
    <linearGradient id="bg" x1="0" y1="0" x2="1" y2="1">
      <stop offset="0" stop-color="#f7f1dd"/>
      <stop offset="1" stop-color="#e6d9aa"/>
    </linearGradient>
  </defs>
  <rect width="1200" height="520" fill="url(#bg)"/>
  <rect x="80" y="72" width="1040" height="360" rx="28" fill="#ffffff" opacity=".74"/>
  <path d="M180 382h840" stroke="#711610" stroke-width="16" stroke-linecap="round" opacity=".18"/>
  <g fill="#711610">
    <circle cx="334" cy="176" r="52" opacity=".9"/>
    <path d="M244 328c14-70 52-108 90-108s76 38 90 108" opacity=".9"/>
    <circle cx="604" cy="154" r="64"/>
    <path d="M488 336c18-86 66-132 116-132s98 46 116 132"/>
    <circle cx="866" cy="176" r="52" opacity=".9"/>
    <path d="M776 328c14-70 52-108 90-108s76 38 90 108" opacity=".9"/>
  </g>
  <g fill="none" stroke="#711610" stroke-width="18" stroke-linecap="round" stroke-linejoin="round">
    <path d="M552 214l38 38 82-92"/>
    <rect x="500" y="96" width="208" height="208" rx="104" opacity=".16"/>
  </g>
</svg>
